# xmcd
#
# Track frame offsets: 
#        150
#        12685
#        26132
#        38701
#        51793
#        64200
#        77029
#        90131
#        102512
#        116470
#        126702
#        139891
#        150229
#
# Disc length: 2145 seconds
#
# Revision: 0
# Processed by: cddbd v1.5.2PL0 Copyright (c) Steve Scherf et al.
# Submitted via: ExactAudioCopy v0.99pb5
#
DISCID=ab085f0d
DTITLE=Various Artist - Beginner's guide to Country CD1
DYEAR=2012
DGENRE=Country
TTITLE0=Tex Williams - That's what I like about the West
TTITLE1=Cliffie Stone - Golden slippers and blackberry blossoms
TTITLE2=Roy Acuff and His Smocky Mountain Biys - Wébésh cannonball
TTITLE3=Wesley Tuttle - With tears in my eyes
TTITLE4=Jimmy Wakely - I love you so much it hurts
TTITLE5=Merle Travis - Sixteen tons
TTITLE6=Tex Williams - Smoke ! Smoke ! Smoke ! (That cigarette)
TTITLE7=Leon Payne - I love you because
TTITLE8=roy Acuff - The wreck on the highway
TTITLE9=Rose Maddox - Move it on over
TTITLE10=The Louvin Brothers - Let her go, god bless her
TTITLE11=Hank Thompson - Bubbles in my beer
TTITLE12=Tennessee Ernie Ford - Country junction
EXTD=
EXTT0=
EXTT1=
EXTT2=
EXTT3=
EXTT4=
EXTT5=
EXTT6=
EXTT7=
EXTT8=
EXTT9=
EXTT10=
EXTT11=
EXTT12=
PLAYORDER=
